<svg width="1000" height="1000" viewBox="0 0 1000 1000" fill="none" xmlns="http://www.w3.org/2000/svg">
<title>Delta</title>
<path fill-rule="evenodd" clip-rule="evenodd" d="M996.549 932.005C998.084 934.671 996.159 938 993.083 938H6.868C3.80226 938 1.8761 934.693 3.3888 932.026L492.923 69.0886C494.45 66.3965 498.325 66.3845 499.869 69.0669L996.549 932.005Z" fill="#EDECE5"/>
<path fill-rule="evenodd" clip-rule="evenodd" d="M823.548 850.004C825.083 852.671 823.159 856 820.082 856H178.869C175.803 856 173.877 852.693 175.39 850.026L493.673 289.087C495.2 286.395 499.075 286.383 500.619 289.065L823.548 850.004ZM315.455 764.813C314.616 766.293 315.89 768.079 317.563 767.766L636.567 708.069C637.919 707.815 638.618 706.303 637.934 705.109L494.725 454.986C493.955 453.641 492.014 453.645 491.25 454.992L315.455 764.813Z" fill="#1D1B16"/>
</svg>
